<svg height="512" viewBox="0 0 511.995 511.995" width="512" xmlns="http://www.w3.org/2000/svg"><g fill="currentColor"><path d="M273.374 301.668c-11.709-11.157-28.444-14.712-43.676-9.27-18.724 6.687-31.304 24.538-31.304 44.42v15.872c0 21.399 17.41 38.809 38.809 38.809a38.802 38.802 0 0034.025-20.143l10.098-18.407c9.27-16.896 6-37.984-7.952-51.281zm-9.583 41.662l-10.098 18.408a18.807 18.807 0 01-16.49 9.762c-10.371 0-18.809-8.438-18.809-18.809v-15.872c0-11.452 7.246-21.733 18.03-25.586a22.664 22.664 0 017.633-1.329c5.683 0 11.236 2.162 15.519 6.243 7.396 7.048 9.13 18.226 4.215 27.183zm153.722 123.509l-27.929 27.929c-3.905 3.905-3.906 10.237 0 14.143 1.953 1.952 4.512 2.929 7.071 2.929s5.119-.977 7.071-2.929l27.929-27.929c3.905-3.905 3.906-10.237 0-14.143-3.905-3.903-10.237-3.903-14.142 0z"/><path d="M499.813 248.998a34.105 34.105 0 00-27.869-7.52 34.126 34.126 0 00-28.331 33.685v19.659a207.102 207.102 0 00-50.771-68.159l17.75-22.525a58.622 58.622 0 0027.406 6.776c29.155 0 53.96-21.658 58.308-50.063 9.875-8.971 15.656-21.856 15.656-35.29 0-26.253-21.359-47.611-47.612-47.611-13.434 0-26.319 5.781-35.29 15.656-28.404 4.348-50.062 29.153-50.062 58.308 0 15.447 5.975 29.52 15.725 40.048l-17.486 22.19a206.444 206.444 0 00-111.24-39.051V147.35c8.974 5.183 19.244 7.991 30.013 7.991 33.139 0 60.1-26.961 60.1-60.101 0-25.864-16.396-48.53-40.462-56.813-10.587-23.105-33.943-38.3-59.651-38.3s-49.064 15.194-59.651 38.3c-24.066 8.282-40.462 30.948-40.462 56.813 0 33.14 26.961 60.101 60.1 60.101 10.769 0 21.039-2.808 30.013-7.991v27.75a206.452 206.452 0 00-111.24 39.05l-17.485-22.189c9.75-10.528 15.725-24.601 15.725-40.048 0-29.154-21.658-53.96-50.062-58.308-8.971-9.875-21.856-15.656-35.29-15.656C21.392 77.949.033 99.307.033 125.56c0 13.434 5.781 26.319 15.656 35.29 4.348 28.404 29.153 50.063 58.308 50.063a58.622 58.622 0 0027.406-6.776l17.75 22.525a207.101 207.101 0 00-50.771 68.157v-19.657a34.13 34.13 0 00-28.332-33.686 34.126 34.126 0 00-27.868 7.521A34.117 34.117 0 000 275.163v56.858c0 44.251 17.232 85.853 48.522 117.143l59.747 59.747c1.953 1.952 4.512 2.929 7.071 2.929s5.119-.977 7.071-2.929c3.905-3.905 3.905-10.237 0-14.143l-59.748-59.747C35.152 407.509 20 370.929 20 332.021v-56.858c0-4.198 1.843-8.157 5.057-10.859a14.165 14.165 0 0111.567-3.122 14.166 14.166 0 0111.759 13.981v63.488c0 20.408 7.948 39.596 22.379 54.028L125 446.917l4.031 4.031c3.906 3.904 10.237 3.905 14.143 0 3.905-3.905 3.905-10.237 0-14.143l-56.739-56.739c-6.654-6.653-6.654-17.479 0-24.133 6.653-6.654 17.48-6.654 24.133 0l45.469 45.469a10.001 10.001 0 007.071 2.929c19.375 0 37.59 7.545 51.29 21.245 20.378 20.378 31.601 47.472 31.601 76.291 0 5.522 4.477 10 10 10s10-4.478 10-10c0-28.819 11.223-55.913 31.601-76.291 13.699-13.7 31.914-21.245 51.289-21.245 2.652 0 5.196-1.054 7.071-2.929l45.468-45.469c6.654-6.654 17.48-6.652 24.134 0 6.654 6.653 6.654 17.479 0 24.133l-56.739 56.739c-3.905 3.905-3.905 10.237 0 14.143 1.953 1.952 4.512 2.929 7.071 2.929s5.119-.977 7.071-2.929l4.031-4.031 54.238-54.238c14.431-14.433 22.379-33.62 22.379-54.028v-63.488a14.162 14.162 0 0111.758-13.98 14.15 14.15 0 0111.567 3.121 14.157 14.157 0 015.057 10.859v56.858c0 24.093-6.053 48.033-17.505 69.233-2.625 4.859-.813 10.927 4.046 13.552 4.856 2.621 10.925.813 13.551-4.046 13.024-24.111 19.908-51.339 19.908-78.739v-56.858a34.113 34.113 0 00-12.182-26.165zm-64.85-135.953a10 10 0 007.246-3.986c5.273-7.061 13.343-11.109 22.14-11.109 15.226 0 27.612 12.387 27.612 27.611 0 8.797-4.049 16.866-11.11 22.141a10.003 10.003 0 00-3.986 7.246c-1.548 20.168-18.622 35.966-38.868 35.966-21.505 0-39-17.495-39-39 .001-20.247 15.798-37.32 35.966-38.869zM175.884 95.24c0-18.428 12.467-34.421 30.318-38.894a9.999 9.999 0 006.963-6.271c6.541-17.913 23.753-29.948 42.832-29.948s36.292 12.035 42.832 29.948a10.003 10.003 0 006.963 6.271c17.851 4.473 30.318 20.466 30.318 38.894 0 22.111-17.989 40.101-40.1 40.101-10.684 0-20.636-4.139-28.091-11.499l18.105-18.105c3.905-3.905 3.905-10.237 0-14.143-3.905-3.904-10.237-3.904-14.143 0l-5.885 5.885V63.84c0-5.522-4.477-10-10-10s-10 4.478-10 10v43.726l-15.929-15.929c-3.905-3.904-10.237-3.904-14.143 0-3.905 3.905-3.905 10.237 0 14.143l22.622 22.622c-6.554 4.481-14.341 6.938-22.564 6.938-22.109 0-40.098-17.989-40.098-40.1zM35.129 154.948a10 10 0 00-3.986-7.246c-7.061-5.274-11.11-13.344-11.11-22.141 0-15.225 12.387-27.611 27.612-27.611 8.797 0 16.867 4.049 22.14 11.109a9.994 9.994 0 007.246 3.986c20.168 1.549 35.966 18.621 35.966 38.868 0 21.505-17.495 39-39 39-20.246.001-37.319-15.797-38.868-35.965zm38.809 185.303c5.896-26.076 17.269-49.986 32.772-70.56h28.868c13.609 0 24.681 11.071 24.681 24.681 0 7.786-3.735 15.2-9.992 19.833-10.59 7.844-18.137 19.028-21.651 31.494l-3.907-3.907c-13.916-13.916-36.232-14.425-50.771-1.541zm270.713 44.175c-23.126 1.035-44.72 10.533-61.194 27.008-11.875 11.875-21.121 25.677-27.459 40.697-6.338-15.02-15.584-28.823-27.458-40.697-16.475-16.475-38.069-25.973-61.195-27.008l-20.957-20.957v-1.862c0-12.299 5.9-24.011 15.783-31.331 11.327-8.388 18.088-21.811 18.088-35.905 0-24.637-20.043-44.681-44.681-44.681h-11.464c34.065-33.982 80.984-54.838 131.884-54.838 34.819 0 67.769 9.751 96.017 26.785-28.807 8.665-49.857 35.421-49.857 67.014 0 23.889 11.988 45.877 32.069 58.819l20.797 13.401a28.552 28.552 0 016.905 6.274zm42.634-42.634l-11.159 11.16a48.532 48.532 0 00-10.267-8.89l-20.798-13.401c-14.341-9.243-22.903-24.947-22.903-42.008 0-27.557 22.418-49.976 49.975-49.976h3.724c30.607 25.672 53.03 61.003 62.202 101.575-14.539-12.885-36.856-12.377-50.774 1.54zm69.122 90.305c-2.64 0-5.22 1.061-7.08 2.92a10.072 10.072 0 00-2.92 7.08c0 2.63 1.06 5.2 2.92 7.07a10.1 10.1 0 007.08 2.93c2.63 0 5.2-1.069 7.07-2.93 1.86-1.87 2.93-4.44 2.93-7.07a10.1 10.1 0 00-2.93-7.08 10.086 10.086 0 00-7.07-2.92z"/></g></svg>