<svg height="512" width="512" xmlns="http://www.w3.org/2000/svg"><path fill="currentColor" d="M88 416c12.169 0 24.019-2.644 35-7.726V492H43c-5.522 0-10 4.477-10 10s4.478 10 10 10h426c5.522 0 10-4.477 10-10s-4.478-10-10-10h-80v-83.726c10.981 5.082 22.831 7.726 35 7.726 47.701 0 88-38.925 88-85 0-36.747-26.697-70.415-63.29-81.338-2.12-23.123-15.727-43.791-35.901-54.957C416.915 183.654 419 172.023 419 160a99.85 99.85 0 00-3.005-24.363c-1.35-5.356-6.787-8.605-12.139-7.256-5.355 1.348-8.604 6.783-7.256 12.139A79.854 79.854 0 01399 160c0 9.581-1.651 18.843-4.902 27.64A70.112 70.112 0 00379 186c-36.464 0-66.505 28.022-69.716 63.664-17.195 5.134-32.203 15.292-43.284 28.431v-81.781l57.3-27.286c4.986-2.375 7.104-8.342 4.729-13.328-2.375-4.987-8.344-7.104-13.328-4.729L266 174.162V100c0-5.523-4.478-10-10-10s-10 4.477-10 10v44.162l-48.7-23.191c-4.988-2.373-10.954-.258-13.328 4.729-2.375 4.986-.258 10.954 4.729 13.328l57.3 27.286v111.781c-11.081-13.139-26.089-23.297-43.284-28.431C199.505 214.022 169.464 186 133 186c-5.112 0-10.162.553-15.098 1.64C114.651 178.844 113 169.581 113 160c0-39.602 28.549-72.715 67.883-78.735a10 10 0 008.322-8.073C194.7 43.365 224.04 20 256 20s61.3 23.365 66.795 53.192a10.001 10.001 0 008.322 8.073 80.776 80.776 0 0112.101 2.822c5.266 1.668 10.885-1.25 12.552-6.516 1.666-5.265-1.251-10.885-6.517-12.551a100.276 100.276 0 00-8.357-2.252C330.827 26.539 295.549 0 256 0s-74.827 26.54-84.896 62.768C125.88 72.911 93 112.902 93 160c0 12.023 2.085 23.654 6.19 34.704-20.172 11.166-33.781 31.834-35.9 54.958C26.697 260.585 0 294.253 0 331c0 46.075 40.299 85 88 85zm55-7.726c10.981 5.082 22.831 7.726 35 7.726 27.047 0 51.709-12.517 68-31.753V492H143zM266 492V384.247C282.291 403.483 306.953 416 334 416c12.169 0 24.019-2.644 35-7.726V492zm55.12-224.696c4.838-.972 8.761-5.45 7.882-11.751C329.244 228.188 351.58 206 379 206c27.619 0 49.754 22.371 49.998 49.553-.872 6.254 2.995 10.77 7.882 11.751C468.304 273.616 492 301 492 331c0 35.234-31.141 65-68 65-12.402 0-24.406-3.633-35-10.536V352.18l54.472-27.236c4.94-2.47 6.942-8.477 4.473-13.417-2.471-4.94-8.481-6.943-13.416-4.472L389 329.82V256c0-5.523-4.478-10-10-10s-10 4.477-10 10v35.857l-12.929-12.929c-3.906-3.904-10.236-3.904-14.143 0-3.905 3.905-3.905 10.237 0 14.143L369 320.143v65.321C358.406 392.367 346.402 396 334 396c-36.859 0-68-29.766-68-65 0-30 23.696-57.384 55.12-63.696zm-246 0c4.833-.971 8.762-5.44 7.882-11.751C83.246 228.37 105.358 206 133 206c27.42 0 49.756 22.188 49.998 49.553-.874 6.263 3.007 10.772 7.882 11.751C222.304 273.616 246 301 246 331c0 35.234-31.141 65-68 65-12.402 0-24.406-3.633-35-10.536v-5.321l27.071-27.071c3.905-3.905 3.905-10.237 0-14.143-3.906-3.904-10.236-3.904-14.143 0L143 351.857V286c0-5.523-4.478-10-10-10s-10 4.477-10 10v43.82l-45.528-22.764c-4.94-2.47-10.946-.468-13.416 4.472s-.468 10.947 4.473 13.417L123 352.18v33.283C112.406 392.367 100.402 396 88 396c-36.859 0-68-29.766-68-65 0-30 23.696-57.384 55.12-63.696z"/><circle cx="384" cy="99" r="10"/></svg>